<?xml version="1.0" encoding="utf-8"?>
<!-- Generator: Adobe Illustrator 16.0.3, SVG Export Plug-In . SVG Version: 6.00 Build 0)  -->
<!DOCTYPE svg PUBLIC "-//W3C//DTD SVG 1.1//EN" "http://www.w3.org/Graphics/SVG/1.1/DTD/svg11.dtd">
<svg version="1.1" xmlns="http://www.w3.org/2000/svg" xmlns:xlink="http://www.w3.org/1999/xlink" x="0px" y="0px" width="26px"
	 height="24px" viewBox="0 0 26 24" enable-background="new 0 0 26 24" xml:space="preserve">
<g id="Layer_1">
</g>
<g id="Layer_2">
	<rect opacity="5.000000e-002" width="26" height="24"/>
	<rect x="1" y="1" opacity="9.999999e-002" width="24" height="22"/>
	<rect x="1" fill="#4A4A4A" width="24" height="22"/>
	<g>
		<path fill="#E6E6E6" d="M14,14h-1.7l-0.5-1.6H9.3L8.8,14H7l2.5-7h1.9L14,14z M11.4,11.2l-0.8-2.4c-0.1-0.2-0.1-0.4-0.1-0.6h0
			c0,0.2-0.1,0.4-0.1,0.6l-0.8,2.4H11.4z"/>
		<path fill="#E6E6E6" d="M15.7,13.4L15.7,13.4l0,0.6h-1.5V6.6h1.5v3.2h0c0.4-0.6,0.9-0.9,1.6-0.9c0.6,0,1.1,0.2,1.5,0.7
			s0.5,1,0.5,1.8c0,0.8-0.2,1.5-0.6,2c-0.4,0.5-1,0.8-1.6,0.8C16.5,14.1,16.1,13.9,15.7,13.4z M15.7,11.3v0.5c0,0.3,0.1,0.6,0.3,0.8
			s0.4,0.3,0.7,0.3c0.4,0,0.6-0.1,0.8-0.4c0.2-0.3,0.3-0.7,0.3-1.2c0-0.4-0.1-0.7-0.3-1c-0.2-0.2-0.4-0.3-0.8-0.3
			c-0.3,0-0.6,0.1-0.8,0.3C15.8,10.6,15.7,10.9,15.7,11.3z"/>
	</g>
</g>
</svg>
