<?xml version="1.0" encoding="utf-8"?>
<!-- Generator: Adobe Illustrator 16.0.3, SVG Export Plug-In . SVG Version: 6.00 Build 0)  -->
<!DOCTYPE svg PUBLIC "-//W3C//DTD SVG 1.1//EN" "http://www.w3.org/Graphics/SVG/1.1/DTD/svg11.dtd">
<svg version="1.1" id="Layer_1" xmlns="http://www.w3.org/2000/svg" xmlns:xlink="http://www.w3.org/1999/xlink" x="0px" y="0px"
	 width="26px" height="24px" viewBox="0 0 26 24" enable-background="new 0 0 26 24" xml:space="preserve">
<rect opacity="5.000000e-002" width="26" height="24"/>
<rect x="1" y="1" opacity="9.999999e-002" width="24" height="22"/>
<rect x="1" fill="#4A4A4A" width="24" height="22"/>
<g>
	<path fill="#E6E6E6" d="M13.6,13.9h-1.4l-0.4-1.2h-2l-0.4,1.2H8.1l2-5.6h1.5L13.6,13.9z M11.5,11.7l-0.6-1.9c0-0.1-0.1-0.3-0.1-0.5
		h0c0,0.2,0,0.3-0.1,0.5l-0.6,1.9H11.5z"/>
	<path fill="#E6E6E6" d="M15,13.4L15,13.4l0,0.5h-1.2V8H15v2.5h0c0.3-0.5,0.7-0.7,1.3-0.7c0.5,0,0.9,0.2,1.2,0.5
		c0.3,0.4,0.4,0.8,0.4,1.5c0,0.7-0.2,1.2-0.5,1.6c-0.3,0.4-0.8,0.6-1.3,0.6C15.6,14,15.3,13.8,15,13.4z M15,11.8v0.4
		c0,0.3,0.1,0.5,0.2,0.6s0.3,0.3,0.6,0.3c0.3,0,0.5-0.1,0.7-0.3c0.2-0.2,0.2-0.5,0.2-0.9c0-0.3-0.1-0.6-0.2-0.8
		c-0.1-0.2-0.3-0.3-0.6-0.3c-0.2,0-0.5,0.1-0.6,0.3C15.1,11.2,15,11.5,15,11.8z"/>
</g>
</svg>
